<svg xmlns="http://www.w3.org/2000/svg" fill="none" viewBox="0 0 24 24"><g fill="#fff"><path fill-rule="evenodd" d="M12 18a6 6 0 1 0 0-12 6 6 0 0 0 0 12Zm0-2a4 4 0 1 0 0-8 4 4 0 0 0 0 8Z" clip-rule="evenodd"/><path d="M18 5a1 1 0 1 0 0 2 1 1 0 0 0 0-2Z"/><path fill-rule="evenodd" d="M1.65 4.28C1 5.56 1 7.24 1 10.6v2.8c0 3.36 0 5.04.65 6.32a6 6 0 0 0 2.63 2.63c1.28.65 2.96.65 6.32.65h2.8c3.36 0 5.04 0 6.32-.65a6 6 0 0 0 2.63-2.63c.65-1.28.65-2.96.65-6.32v-2.8c0-3.36 0-5.04-.65-6.32a6 6 0 0 0-2.63-2.63C18.44 1 16.76 1 13.4 1h-2.8c-3.36 0-5.04 0-6.32.65a6 6 0 0 0-2.63 2.63ZM13.4 3h-2.8c-1.71 0-2.88 0-3.78.08-.87.07-1.32.2-1.64.36a4 4 0 0 0-1.74 1.74c-.16.32-.3.77-.36 1.64C3 7.72 3 8.9 3 10.6v2.8c0 1.71 0 2.88.08 3.78.07.87.2 1.32.36 1.64a4 4 0 0 0 1.74 1.74c.32.16.77.3 1.64.36.9.08 2.07.08 3.78.08h2.8c1.71 0 2.88 0 3.78-.08.87-.07 1.32-.2 1.64-.36a4 4 0 0 0 1.74-1.74c.16-.32.3-.77.36-1.64.08-.9.08-2.07.08-3.78v-2.8c0-1.71 0-2.88-.08-3.78a4.32 4.32 0 0 0-.36-1.64 4 4 0 0 0-1.74-1.74 4.32 4.32 0 0 0-1.64-.36C16.28 3 15.1 3 13.4 3Z" clip-rule="evenodd"/></g></svg>