<svg xmlns="http://www.w3.org/2000/svg" fill="#fff" stroke="#fff" viewBox="0 0 32 32"><path d="M16.66 1.03c1.63-.03 3.26-.01 4.88-.03a7.76 7.76 0 0 0 2.2 5.22h-.01A8.77 8.77 0 0 0 29 8.45h.03v5.04a13.33 13.33 0 0 1-5.33-1.25l.08.04c-.79-.38-1.45-.77-2.08-1.2l.05.03c0 3.65.02 7.3-.02 10.94a9.51 9.51 0 0 1-1.7 4.95l.01-.03a9.31 9.31 0 0 1-7.37 4.01h-.01l-.42.01a9.07 9.07 0 0 1-4.72-1.32l.04.02A9.45 9.45 0 0 1 3 22.6v-.04c-.03-.63-.04-1.25-.02-1.86a9.42 9.42 0 0 1 10.97-8.34l-.06-.01c.03 1.85-.05 3.7-.05 5.55a4.29 4.29 0 0 0-5.46 2.62l-.01.03a4.85 4.85 0 0 0-.17 2.03v-.02a4.26 4.26 0 0 0 4.38 3.58h-.01a4.2 4.2 0 0 0 3.45-1.99v-.02c.27-.37.46-.82.52-1.3v-.02c.12-2.24.07-4.46.09-6.7 0-5.04-.02-10.06.02-15.08z"/></svg>