<svg width="416" height="352" viewBox="0 0 416 352" fill="none" xmlns="http://www.w3.org/2000/svg">
<path class="fill-red-700 hover:fill-red-500" d="M256 256V296C256 306.609 251.786 316.783 244.284 324.284C236.783 331.786 226.609 336 216 336H56C45.3913 336 35.2172 331.786 27.7157 324.284C20.2143 316.783 16 306.609 16 296V56C16 45.3913 20.2143 35.2172 27.7157 27.7157C35.2172 20.2143 45.3913 16 56 16H208C230.09 16 256 33.91 256 56V96M320 256L400 176L320 96M128 176H384" stroke="black" stroke-width="32" stroke-linecap="round" stroke-linejoin="round"/>
</svg>
