<svg xmlns="http://www.w3.org/2000/svg" fill="none" viewBox="0 0 31 32"><g fill="#000"><path d="M30.25 6H27v21.71c0 .61.21 1.2.59 1.62.37.43.88.67 1.41.67.53 0 1.04-.24 1.41-.67.38-.43.59-1 .59-1.62V6.86a.92.92 0 0 0-.22-.6.7.7 0 0 0-.53-.26Z"/><path d="M27.94 31.84a4.48 4.48 0 0 1-2.38-1.64c-.6-.8-.92-1.77-.92-2.77V.86a.87.87 0 0 0-.25-.6.83.83 0 0 0-.6-.26H.85a.83.83 0 0 0-.6.25.87.87 0 0 0-.24.6V28c0 1.06.41 2.08 1.15 2.83A3.88 3.88 0 0 0 3.92 32h24c.02 0 .04 0 .05-.02a.08.08 0 0 0 .02-.1.08.08 0 0 0-.05-.04ZM4.48 12.57V5.71h6.72v6.86H4.48ZM20.16 26.3H4.48V24h15.68v2.29Zm0-4.58H4.48v-2.28h15.68v2.28Zm0-4.57H4.48v-2.28h15.68v2.28Zm0-4.57h-6.72V10.3h6.72v2.28Zm0-4.57h-6.72V5.71h6.72V8Z"/></g></svg>