<svg xmlns="http://www.w3.org/2000/svg" fill="none" viewBox="0 0 31 32"><g fill="#000"><path d="M30.3 6H27v21.7c0 .6.2 1.2.6 1.6a1.7 1.7 0 0 0 2.8 0c.4-.4.6-1 .6-1.6V7a1 1 0 0 0-.2-.6.7.7 0 0 0-.5-.3Z"/><path d="M28 31.8a4.5 4.5 0 0 1-2.4-1.6c-.6-.8-1-1.8-1-2.8V1a.9.9 0 0 0-.2-.6.8.8 0 0 0-.6-.3H.8a.8.8 0 0 0-.5.2.9.9 0 0 0-.3.6V28c0 1 .4 2 1.2 2.8A3.9 3.9 0 0 0 3.9 32h24v-.1ZM4.4 12.6V5.7h6.7v6.9H4.5Zm15.7 13.7H4.5V24h15.7v2.3Zm0-4.6H4.5v-2.3h15.7v2.3Zm0-4.6H4.5V15h15.7v2Zm0-4.5h-6.8v-2.3h6.8v2.3Zm0-4.6h-6.8V5.7h6.8V8Z"/></g></svg>