<svg xmlns="http://www.w3.org/2000/svg" fill="none" viewBox="0 0 20 20"><path fill="#fff" d="M0 18.93A1.07 1.07 0 0 0 1.07 20h17.86A1.07 1.07 0 0 0 20 18.93V6.43H0v12.5Zm14.29-10.9a.18.18 0 0 1 .17-.17h1.79a.18.18 0 0 1 .18.18v1.78a.18.18 0 0 1-.18.18h-1.79a.18.18 0 0 1-.17-.18V8.04Zm0 3.58a.18.18 0 0 1 .17-.18h1.79a.18.18 0 0 1 .18.18v1.78a.18.18 0 0 1-.18.18h-1.79a.18.18 0 0 1-.17-.18v-1.78ZM10.7 8.04a.18.18 0 0 1 .18-.18h1.79a.18.18 0 0 1 .18.18v1.78a.18.18 0 0 1-.18.18h-1.79a.18.18 0 0 1-.18-.18V8.04Zm0 3.57a.18.18 0 0 1 .18-.18h1.79a.18.18 0 0 1 .18.18v1.78a.18.18 0 0 1-.18.18h-1.79a.18.18 0 0 1-.18-.18v-1.78Zm0 3.57a.18.18 0 0 1 .18-.18h1.79a.18.18 0 0 1 .18.18v1.78a.18.18 0 0 1-.18.18h-1.79a.18.18 0 0 1-.18-.18v-1.78ZM7.14 11.6a.18.18 0 0 1 .18-.18h1.79a.18.18 0 0 1 .18.18v1.78a.18.18 0 0 1-.18.18H7.32a.18.18 0 0 1-.18-.18v-1.78Zm0 3.57a.18.18 0 0 1 .18-.18h1.79a.18.18 0 0 1 .18.18v1.78a.18.18 0 0 1-.18.18H7.32a.18.18 0 0 1-.18-.18v-1.78ZM3.57 11.6a.18.18 0 0 1 .18-.18h1.79a.18.18 0 0 1 .17.18v1.78a.18.18 0 0 1-.17.18H3.75a.18.18 0 0 1-.18-.18v-1.78Zm0 3.57a.18.18 0 0 1 .18-.18h1.79a.18.18 0 0 1 .17.18v1.78a.18.18 0 0 1-.17.18H3.75a.18.18 0 0 1-.18-.18v-1.78ZM18.93 1.43h-2.5V0H14.3v1.43H5.7V0H3.57v1.43h-2.5A1.06 1.06 0 0 0 0 2.49V5h20V2.49a1.06 1.06 0 0 0-1.07-1.06Z"/></svg>