<svg xmlns="http://www.w3.org/2000/svg" fill="none" viewBox="0 0 20 20"><path fill="#fff" d="M0 19a1 1 0 0 0 1 1h18a1 1 0 0 0 1-1V6.3H0V19ZM14.3 8a.2.2 0 0 1 .2-.1h1.7a.2.2 0 0 1 .2.1v1.8a.2.2 0 0 1-.1.2h-1.8a.2.2 0 0 1-.2-.2V8Zm0 3.6a.2.2 0 0 1 .2-.2h1.7a.2.2 0 0 1 .2.2v1.8a.2.2 0 0 1-.1.2h-1.8a.2.2 0 0 1-.2-.2v-1.8ZM10.7 8a.2.2 0 0 1 .2-.1h1.8a.2.2 0 0 1 .1.1v1.8a.2.2 0 0 1-.1.2h-1.8a.2.2 0 0 1-.2-.2V8Zm0 3.6a.2.2 0 0 1 .2-.2h1.8a.2.2 0 0 1 .1.2v1.8a.2.2 0 0 1-.1.2h-1.8a.2.2 0 0 1-.2-.2v-1.8Zm0 3.6a.2.2 0 0 1 .2-.2h1.8a.2.2 0 0 1 .1.2V17a.2.2 0 0 1-.1.1h-1.8a.2.2 0 0 1-.2-.1v-1.8Zm-3.6-3.6a.2.2 0 0 1 .2-.2h1.8a.2.2 0 0 1 .2.2v1.8a.2.2 0 0 1-.2.2H7.3a.2.2 0 0 1-.2-.2v-1.8Zm0 3.6a.2.2 0 0 1 .2-.2h1.8a.2.2 0 0 1 .2.2V17a.2.2 0 0 1-.2.1H7.3a.2.2 0 0 1-.2-.2v-1.7Zm-3.5-3.6a.2.2 0 0 1 .1-.2h1.8a.2.2 0 0 1 .2.2v1.8a.2.2 0 0 1-.2.2H3.7a.2.2 0 0 1-.1-.2v-1.8Zm0 3.6a.2.2 0 0 1 .1-.2h1.8a.2.2 0 0 1 .2.2V17a.2.2 0 0 1-.2.1H3.7a.2.2 0 0 1-.1-.2v-1.7ZM18.9 1.4h-2.5V0h-2.1v1.4H5.7V0H3.6v1.4H1a1 1 0 0 0-1.1 1V5h20V2.5a1 1 0 0 0-1-1Z"/></svg>