<svg width="11" height="9" viewBox="0 0 11 9" fill="none" xmlns="http://www.w3.org/2000/svg">
<path id="Vector" d="M10.6071 0H0.392857C0.288665 0 0.18874 0.0431006 0.115065 0.11982C0.0413902 0.196539 0 0.300593 0 0.409091V8.59091C0 8.69941 0.0413902 8.80346 0.115065 8.88018C0.18874 8.9569 0.288665 9 0.392857 9H10.6071C10.7113 9 10.8113 8.9569 10.8849 8.88018C10.9586 8.80346 11 8.69941 11 8.59091V0.409091C11 0.300593 10.9586 0.196539 10.8849 0.11982C10.8113 0.0431006 10.7113 0 10.6071 0ZM5.74112 5.23202C5.67217 5.28783 5.58733 5.31813 5.5 5.31813C5.41267 5.31813 5.32783 5.28783 5.25888 5.23202L1.41306 2.1173L1.89529 1.47145L5.5 4.39082L9.10471 1.47145L9.58694 2.1173L5.74112 5.23202Z" fill="black"/>
</svg>
