<svg xmlns="http://www.w3.org/2000/svg" fill="none" viewBox="0 0 16 16"><g fill="#000"><path d="M12.8 13.5a.5.5 0 0 1-.3-.2L2.2 3a.5.5 0 0 1 .7-.7l10.3 10.4a.5.5 0 0 1-.4.8Zm-5.4-4L6 8.2a1.9 1.9 0 0 0 1.5 1.6v-.1ZM8 6.2l1.5 1.5h.1A1.9 1.9 0 0 0 8 6Z"/><path d="M14.6 8.3a1 1 0 0 0 0-1 10 10 0 0 0-3-3 7.4 7.4 0 0 0-4-1.2 6.6 6.6 0 0 0-2 .4.1.1 0 0 0 0 .2L6.8 5A.1.1 0 0 0 7 5a2.8 2.8 0 0 1 3.4 3.4.1.1 0 0 0 0 .1l2 2a.1.1 0 0 0 .2 0 11 11 0 0 0 2-2.3Zm-7 2.3A2.8 2.8 0 0 1 5 7.2.1.1 0 0 0 5 7L3 5a.1.1 0 0 0-.2 0c-.7.6-1.4 1.3-2 2.2a1 1 0 0 0 0 1 9.8 9.8 0 0 0 2.9 3 7 7 0 0 0 6.1.8.1.1 0 0 0 0-.1l-1.3-1.4a.1.1 0 0 0-.1 0h-.7Z"/></g></svg>