<svg xmlns="http://www.w3.org/2000/svg" fill="none" viewBox="0 0 16 16"><g fill="#000" clip-path="url(#a)"><path d="M12.84 13.46a.47.47 0 0 1-.33-.14L2.2 3a.47.47 0 0 1 .66-.67l10.31 10.32a.47.47 0 0 1-.33.8ZM7.45 9.58 5.93 8.07a.06.06 0 0 0-.1.05A1.88 1.88 0 0 0 7.4 9.68a.06.06 0 0 0 .05-.1Zm.47-3.5L9.44 7.6a.06.06 0 0 0 .1-.05 1.88 1.88 0 0 0-1.57-1.57.06.06 0 0 0-.05.1Z"/><path d="M14.57 8.34a.94.94 0 0 0 0-1.02 9.93 9.93 0 0 0-2.91-2.94 7.37 7.37 0 0 0-3.98-1.24 6.64 6.64 0 0 0-2.16.38.12.12 0 0 0 0 .16l1.4 1.39a.12.12 0 0 0 .1.03 2.81 2.81 0 0 1 3.4 3.4.12.12 0 0 0 .03.1l2 2a.12.12 0 0 0 .15 0c.77-.65 1.43-1.41 1.97-2.26Zm-6.88 2.3a2.81 2.81 0 0 1-2.74-3.47.12.12 0 0 0-.03-.11L2.96 5.1a.12.12 0 0 0-.16-.01C2.1 5.7 1.43 6.44.82 7.31A.94.94 0 0 0 .8 8.35a9.79 9.79 0 0 0 2.88 2.95 6.98 6.98 0 0 0 6.17.85.12.12 0 0 0 0-.17L8.46 10.6a.12.12 0 0 0-.11-.03c-.22.06-.44.08-.66.08Z"/></g><defs><clipPath><path fill="#fff" d="M0 0h15v15H0z" transform="translate(.19 .33)"/></clipPath></defs></svg>