<svg xmlns="http://www.w3.org/2000/svg" fill="none" viewBox="0 0 11 13"><path fill="#000" d="M10.25 0H.75C.55 0 .36.07.22.19A.6.6 0 0 0 0 .65v11.7c0 .17.08.34.22.46s.33.19.53.19h9.5c.2 0 .39-.07.53-.19a.6.6 0 0 0 .22-.46V.65a.6.6 0 0 0-.22-.46.81.81 0 0 0-.53-.19Zm-1.9 8.04c0 .23-.06.47-.2.67-.15.2-.36.36-.6.45-.25.1-.53.13-.8.08a1.42 1.42 0 0 1-.7-.32c-.2-.17-.32-.38-.37-.61-.05-.23-.02-.47.1-.69.1-.21.28-.4.52-.51a1.5 1.5 0 0 1 1.65.16c.23.2.37.48.4.77ZM3.5 1.3h4v.87h-4V1.3Zm6 10.4h-5v-.67c0-.88 1.66-1.33 2.5-1.33.84 0 2.5.45 2.5 1.33v.67Z"/></svg>