<svg xmlns="http://www.w3.org/2000/svg" fill="none" viewBox="0 0 10 9"><path fill="#000" d="M8.01 9c-.43 0-1.05-.14-1.96-.6a12.77 12.77 0 0 1-3.09-2.08A10.71 10.71 0 0 1 .65 3.54C-.18 2.2-.04 1.5.12 1.2.31.83.58.62.94.4a4.1 4.1 0 0 1 .7-.33.66.66 0 0 1 .49-.04c.14.05.27.15.46.32.41.36.96 1.16 1.17 1.56.14.26.23.44.23.64 0 .23-.13.4-.29.6l-.08.1c-.17.2-.21.26-.19.36.05.2.43.83 1.04 1.38.6.55 1.27.86 1.5.9.13.03.2 0 .42-.17l.1-.07c.24-.16.43-.27.68-.27.22 0 .4.09.71.23.4.18 1.32.67 1.73 1.04.2.17.3.29.35.41.09.2 0 .35-.04.45l-.03.05c-.1.2-.2.4-.34.58-.24.31-.48.56-.88.73-.2.09-.43.13-.66.13Z"/></svg>