<svg width="10" height="9" viewBox="0 0 10 9" fill="none" xmlns="http://www.w3.org/2000/svg">
<path id="Vector" d="M8.01284 8.99992C7.57704 8.99992 6.96486 8.85809 6.04815 8.39724C4.93341 7.83473 4.07118 7.31541 2.96248 6.32038C1.89351 5.3591 1.37331 4.73672 0.645261 3.54461C-0.177228 2.19861 -0.037021 1.49307 0.119707 1.19152C0.306353 0.831118 0.581856 0.615558 0.937955 0.401604C1.14022 0.28236 1.35426 0.180141 1.57737 0.0962433C1.5997 0.0876048 1.62046 0.0793681 1.63899 0.071935C1.74951 0.0271354 1.91695 -0.0405663 2.12905 0.031756C2.27059 0.079569 2.39696 0.177405 2.59477 0.353188C3.00043 0.713193 3.55478 1.51497 3.75929 1.90872C3.8966 2.1741 3.98746 2.34928 3.98769 2.54576C3.98769 2.77578 3.85909 2.95317 3.70303 3.14463C3.67378 3.18059 3.64476 3.21494 3.61663 3.24829C3.44673 3.44919 3.40944 3.50724 3.434 3.61091C3.48379 3.81923 3.85507 4.4394 4.46524 4.98724C5.07541 5.53508 5.74474 5.84808 5.97715 5.89267C6.09727 5.91578 6.16313 5.88082 6.39353 5.72252C6.42658 5.69981 6.46051 5.67631 6.49601 5.65281C6.73401 5.4935 6.92199 5.38079 7.1716 5.38079H7.17294C7.39017 5.38079 7.57614 5.46557 7.88424 5.60539C8.28611 5.78781 9.20393 6.2802 9.60647 6.64563C9.80227 6.82322 9.91144 6.93653 9.9648 7.06369C10.0452 7.25515 9.96949 7.40522 9.92015 7.50566C9.91189 7.52234 9.90273 7.54062 9.89313 7.56091C9.79916 7.76131 9.68489 7.95351 9.55177 8.13507C9.31444 8.45449 9.07399 8.70179 8.67257 8.86994C8.46644 8.95768 8.24085 9.00212 8.01284 8.99992Z" fill="black"/>
</svg>
