<svg width="9" height="10" viewBox="0 0 9 10" fill="none" xmlns="http://www.w3.org/2000/svg">
<path id="Vector" d="M4.5 5C4.97924 5 5.44772 4.85338 5.84619 4.57867C6.24466 4.30397 6.55523 3.91352 6.73863 3.45671C6.92203 2.99989 6.97001 2.49723 6.87652 2.01227C6.78302 1.52732 6.55225 1.08187 6.21337 0.732234C5.8745 0.382603 5.44275 0.144501 4.97272 0.0480379C4.50269 -0.0484251 4.01549 0.00108321 3.57273 0.190302C3.12997 0.379521 2.75154 0.699952 2.48529 1.11108C2.21903 1.5222 2.07692 2.00555 2.07692 2.5C2.07692 3.16304 2.33221 3.79893 2.78663 4.26777C3.24104 4.73661 3.85736 5 4.5 5ZM4.5 5.71429C2.99813 5.71429 0 6.67143 0 8.57143V10H9V8.57143C9 6.67143 6.00187 5.71429 4.5 5.71429Z" fill="black"/>
</svg>
