<svg width="31" height="31" viewBox="0 0 31 31" fill="none" xmlns="http://www.w3.org/2000/svg">
<path id="Vector" d="M30.6692 12.0762C29.9538 8.70976 28.0564 5.64574 25.3259 3.44875C22.5336 1.21461 19.0636 -0.00176493 15.4876 1.92211e-06C11.2721 1.92211e-06 7.33488 1.62404 4.39127 4.57319C1.54661 7.42685 -0.0123813 11.1946 7.40587e-05 15.1796C0.000170902 18.1013 0.857913 20.9587 2.46692 23.3974L2.76792 23.816L1.10721 31L9.05095 29.0238C9.05095 29.0238 9.2101 29.077 9.32773 29.122C9.44536 29.167 10.4577 29.5552 11.5316 29.8555C12.4243 30.1046 14.2815 30.4783 15.7367 30.4783C19.8642 30.4783 23.7185 28.8798 26.5887 25.9763C29.4334 23.0957 31 19.2657 31 15.1879C31.0002 14.1419 30.8893 13.0988 30.6692 12.0762ZM8.85719 17.7143C8.41925 17.7143 7.99114 17.5844 7.62701 17.3411C7.26287 17.0978 6.97906 16.752 6.81147 16.3474C6.64387 15.9428 6.60002 15.4975 6.68546 15.068C6.7709 14.6385 6.98179 14.2439 7.29146 13.9343C7.60114 13.6246 7.99568 13.4137 8.42521 13.3283C8.85474 13.2428 9.29996 13.2867 9.70456 13.4543C10.1092 13.6219 10.455 13.9057 10.6983 14.2698C10.9416 14.6339 11.0715 15.0621 11.0715 15.5C11.0715 16.0873 10.8382 16.6505 10.4229 17.0657C10.0077 17.481 9.44446 17.7143 8.85719 17.7143ZM15.5 17.7143C15.0621 17.7143 14.634 17.5844 14.2698 17.3411C13.9057 17.0978 13.6219 16.752 13.4543 16.3474C13.2867 15.9428 13.2429 15.4975 13.3283 15.068C13.4137 14.6385 13.6246 14.2439 13.9343 13.9343C14.244 13.6246 14.6385 13.4137 15.0681 13.3283C15.4976 13.2428 15.9428 13.2867 16.3474 13.4543C16.752 13.6219 17.0978 13.9057 17.3411 14.2698C17.5845 14.6339 17.7143 15.0621 17.7143 15.5C17.7143 16.0873 17.481 16.6505 17.0658 17.0657C16.6505 17.481 16.0873 17.7143 15.5 17.7143ZM22.1429 17.7143C21.7049 17.7143 21.2768 17.5844 20.9127 17.3411C20.5486 17.0978 20.2647 16.752 20.0971 16.3474C19.9296 15.9428 19.8857 15.4975 19.9711 15.068C20.0566 14.6385 20.2675 14.2439 20.5771 13.9343C20.8868 13.6246 21.2814 13.4137 21.7109 13.3283C22.1404 13.2428 22.5856 13.2867 22.9902 13.4543C23.3949 13.6219 23.7407 13.9057 23.984 14.2698C24.2273 14.6339 24.3572 15.0621 24.3572 15.5C24.3572 16.0873 24.1239 16.6505 23.7086 17.0657C23.2934 17.481 22.7301 17.7143 22.1429 17.7143Z" fill="black"/>
</svg>
