<svg width="20" height="20" viewBox="0 0 20 20" fill="none" xmlns="http://www.w3.org/2000/svg">
<path id="Vector" d="M2.00143 20C1.69779 19.9986 1.40711 19.8768 1.19312 19.6614C0.979129 19.446 0.859292 19.1545 0.859886 18.8509C0.862545 18.7355 0.880561 18.6209 0.913459 18.5103L1.7358 15.5357C1.77017 15.4259 1.73133 15.3152 1.68088 15.2277L1.67106 15.2098C1.66749 15.204 1.65053 15.1804 1.63847 15.1629C1.62642 15.1455 1.61258 15.1268 1.60008 15.1085L1.5916 15.0964C0.553253 13.5227 -0.000151989 11.6787 4.77809e-05 9.7933C-0.00798809 7.22232 0.997835 4.7933 2.83314 2.95045C4.73228 1.04777 7.27251 1.24007e-06 9.99221 1.24007e-06C12.2994 -0.00113866 14.5381 0.783622 16.3397 2.225C18.1009 3.64241 19.325 5.61786 19.7866 7.79107C19.9287 8.45126 20.0002 9.12469 20 9.8C20 12.4308 18.9893 14.9018 17.1535 16.7585C15.3017 18.6335 12.815 19.6629 10.152 19.6629C9.21452 19.6629 8.01494 19.4237 7.43904 19.2612C6.74616 19.0674 6.08945 18.8147 6.01713 18.7879C5.94059 18.7586 5.85935 18.7435 5.77739 18.7433C5.6885 18.7428 5.60042 18.7602 5.51846 18.7946L5.48051 18.8094L2.46795 19.8978C2.31999 19.9601 2.16187 19.9947 2.00143 20Z" fill="white"/>
</svg>
