<svg xmlns="http://www.w3.org/2000/svg" fill="none" viewBox="0 0 16 20"><path fill="#fff" d="m15.66 13.8-.2-.26c-.92-1.18-1.47-1.9-1.47-5.26 0-1.75-.39-3.17-1.15-4.25a5.48 5.48 0 0 0-2.37-1.86C10.1.87 9.12 0 8 0S5.9.87 5.53 2.17a.13.13 0 0 1-.03.03C3.15 3.23 2 5.22 2 8.27c0 3.37-.55 4.09-1.47 5.27l-.2.27c-.18.23-.3.5-.33.8-.03.3.01.6.13.88.26.58.8.94 1.43.94h12.86c.62 0 1.17-.36 1.43-.94a1.67 1.67 0 0 0-.2-1.68ZM8 20c.6 0 1.2-.18 1.7-.5.52-.34.95-.81 1.23-1.38a.19.19 0 0 0 0-.18.17.17 0 0 0-.06-.06.16.16 0 0 0-.08-.02H5.22c-.03 0-.06 0-.09.02a.17.17 0 0 0-.06.06.19.19 0 0 0 0 .18c.28.57.7 1.04 1.22 1.37.52.33 1.1.5 1.71.51Z"/></svg>