<svg xmlns="http://www.w3.org/2000/svg" fill="none" viewBox="0 0 17 20"><path fill="#fff" d="m16.64 13.8-.21-.26c-.98-1.18-1.57-1.9-1.57-5.26 0-1.75-.4-3.17-1.22-4.25a5.78 5.78 0 0 0-2.52-1.86C10.74.87 9.7 0 8.5 0 7.31 0 6.26.87 5.88 2.17a.14.14 0 0 1-.04.03c-2.5 1.03-3.7 3.02-3.7 6.07 0 3.37-.6 4.09-1.57 5.27l-.21.27a1.58 1.58 0 0 0-.2 1.68c.27.58.85.94 1.51.94h13.66c.67 0 1.24-.36 1.52-.94a1.58 1.58 0 0 0-.2-1.68ZM8.5 20a3.52 3.52 0 0 0 3.14-1.97.18.18 0 0 0-.1-.15.17.17 0 0 0-.08-.02H5.54a.18.18 0 0 0-.15.08.18.18 0 0 0 0 .18A3.56 3.56 0 0 0 8.5 20Z"/></svg>