<svg xmlns="http://www.w3.org/2000/svg" fill="none" viewBox="0 0 17 20"><path fill="#fff" d="M9 13.2a5.8 5.8 0 0 1-1 0 6.2 6.2 0 0 1-2.8-1A7 7 0 0 1 3 10a.1.1 0 0 0-.1 0L0 15.7a.8.8 0 0 0 0 .7l.2.2.3.1H4l.2.3 1.5 2.8s0 .2.2.2l.3.1a.7.7 0 0 0 .5-.4l2.5-6.2a.2.2 0 0 0 0-.1.2.2 0 0 0 0-.1.1.1 0 0 0-.1 0Zm8 2.4L14.1 10a.1.1 0 0 0-.2 0 6.9 6.9 0 0 1-3 2.6.7.7 0 0 0-.4.3l-1.4 3.5a.4.4 0 0 0 0 .3l1.2 2.8c0 .2.3.4.5.4l.3-.1.3-.2 1.4-2.8c.1-.2.3-.3.5-.3h3c.3 0 .5-.1.6-.4a.8.8 0 0 0 0-.6ZM8.4 0C5.5 0 3 2.7 3 6s2.5 6 5.5 6S14 9.3 14 6s-2.5-6-5.5-6Zm0 9.3a3 3 0 0 1-1.7-.5c-.5-.4-.9-1-1.1-1.5a3.6 3.6 0 0 1 .6-3.7A3 3 0 0 1 8 2.7c.6-.1 1.2 0 1.8.2s1 .7 1.3 1.3a3.5 3.5 0 0 1-.3 4.2 3 3 0 0 1-2.2 1Z"/></svg>