<svg xmlns="http://www.w3.org/2000/svg" fill="none" viewBox="0 0 17 20"><path fill="#fff" d="M9 13.18a5.81 5.81 0 0 1-1.08 0 6.19 6.19 0 0 1-2.73-.96 7.02 7.02 0 0 1-2.17-2.2.14.14 0 0 0-.15 0 .16.16 0 0 0-.05.07l-2.73 5.5a.75.75 0 0 0-.01.67c.05.1.13.2.23.25.1.06.2.09.3.09h2.97c.1 0 .2.02.3.08.08.05.16.13.21.23l1.47 2.75c.05.1.13.19.22.25.1.06.2.09.3.09a.67.67 0 0 0 .55-.4l2.51-6.18a.19.19 0 0 0-.01-.16.16.16 0 0 0-.06-.06.14.14 0 0 0-.08-.02Zm7.91 2.4-2.71-5.5a.16.16 0 0 0-.06-.05.14.14 0 0 0-.15 0 6.87 6.87 0 0 1-3.03 2.66.65.65 0 0 0-.32.34l-1.4 3.45a.37.37 0 0 0 0 .28l1.15 2.83c.1.23.32.4.55.41.1 0 .2-.04.3-.1.09-.06.17-.14.22-.25l1.46-2.74c.11-.2.31-.31.52-.3h3c.25 0 .44-.16.52-.43a.8.8 0 0 0-.05-.6ZM8.5 0C5.47 0 3 2.7 3 6s2.47 6 5.5 6S14 9.3 14 6s-2.47-6-5.5-6Zm0 9.33c-.6 0-1.2-.2-1.7-.56-.5-.36-.9-.89-1.12-1.5a3.62 3.62 0 0 1 .66-3.63c.43-.46.97-.78 1.56-.9.6-.14 1.21-.07 1.77.18s1.03.68 1.37 1.23a3.55 3.55 0 0 1-.38 4.2c-.57.63-1.35.98-2.16.98Z"/></svg>