<svg xmlns="http://www.w3.org/2000/svg" fill="none" viewBox="0 0 17 20"><path fill="#fff" d="M16.06 4.66a.17.17 0 0 0 .06-.07.2.2 0 0 0 0-.18.17.17 0 0 0-.06-.06L9.8.39a2.45 2.45 0 0 0-2.62 0L.94 4.35a.17.17 0 0 0-.05.06.2.2 0 0 0 0 .18l.05.07 7.48 4.8a.15.15 0 0 0 .16 0l7.48-4.8ZM.25 5.87a.15.15 0 0 0-.17 0 .17.17 0 0 0-.06.07.2.2 0 0 0-.02.09v7.76c0 .37.1.74.26 1.06.17.33.42.6.71.79l6.63 4.34a.15.15 0 0 0 .16 0 .17.17 0 0 0 .06-.07.2.2 0 0 0 .03-.09v-9a.2.2 0 0 0-.03-.1.17.17 0 0 0-.06-.06L.25 5.87Zm8.9 4.98v8.97l.03.09c.01.03.03.05.06.06a.15.15 0 0 0 .16 0l6.63-4.34c.3-.18.54-.45.7-.78.18-.32.27-.69.27-1.06V6.03a.2.2 0 0 0-.02-.1.17.17 0 0 0-.06-.06.15.15 0 0 0-.17 0L9.24 10.7a.17.17 0 0 0-.06.07.2.2 0 0 0-.03.09Z"/></svg>