<svg xmlns="http://www.w3.org/2000/svg" fill="none" viewBox="0 0 16 16"><path fill="#000" d="M8 11.57a1.1 1.1 0 0 1-.38-.06.87.87 0 0 1-.32-.21L3.7 7.7a.95.95 0 0 1-.28-.7c0-.28.1-.52.28-.7a1 1 0 0 1 .71-.29c.3 0 .53.08.71.27L7 8.14V1c0-.28.1-.52.29-.71C7.48.09 7.72 0 8 0c.28 0 .52.1.71.29.2.19.29.43.29.71v7.15l1.88-1.88a.93.93 0 0 1 .7-.26c.3.01.54.1.72.29.18.18.27.42.27.7 0 .28-.09.52-.27.7l-3.6 3.6c-.1.1-.2.17-.32.21a1.1 1.1 0 0 1-.38.06ZM2 16c-.55 0-1.02-.2-1.41-.59C.19 15.02 0 14.55 0 14v-2c0-.28.1-.52.29-.71.19-.2.43-.29.71-.29.28 0 .52.1.71.29.2.19.29.43.29.71v2h12v-2c0-.28.1-.52.29-.71.19-.2.43-.29.71-.29.28 0 .52.1.71.29.2.19.29.43.29.71v2c0 .55-.2 1.02-.59 1.41-.39.4-.86.59-1.41.59H2Z"/></svg>