<svg xmlns="http://www.w3.org/2000/svg" fill="none" viewBox="0 0 16 16"><path fill="#000" d="M8 11.6a1.1 1.1 0 0 1-.4 0 .9.9 0 0 1-.3-.3L3.7 7.7a1 1 0 0 1-.3-.7c0-.3.1-.5.3-.7a1 1 0 0 1 .7-.3c.3 0 .5 0 .7.3L7 8V1c0-.3.1-.5.3-.7.2-.2.4-.3.7-.3.3 0 .5.1.7.3.2.2.3.4.3.7v7.2l1.9-2a1 1 0 0 1 .7-.2c.3 0 .5.1.7.3.2.2.3.4.3.7 0 .3-.1.5-.3.7l-3.6 3.6-.3.2a1.1 1.1 0 0 1-.4 0ZM2 16a2 2 0 0 1-1.4-.6C.2 15 0 14.6 0 14v-2c0-.3.1-.5.3-.7.2-.2.4-.3.7-.3.3 0 .5.1.7.3.2.2.3.4.3.7v2h12v-2c0-.3.1-.5.3-.7.2-.2.4-.3.7-.3.3 0 .5.1.7.3.2.2.3.4.3.7v2c0 .6-.2 1-.6 1.4a2 2 0 0 1-1.4.6H2Z"/></svg>