<svg xmlns="http://www.w3.org/2000/svg" fill="none" viewBox="0 0 29 21"><path fill="#fff" d="M25.07 3.82h-3.7a.93.93 0 0 1-.6-.3l-1.61-2.44A2.84 2.84 0 0 0 16.95 0h-5.76a2.84 2.84 0 0 0-2.21 1.08L7.35 3.52c-.13.15-.33.3-.53.3v-.48c0-.25-.11-.5-.3-.67a1.02 1.02 0 0 0-.7-.28h-1.5c-.27 0-.52.1-.71.28a.93.93 0 0 0-.3.67v.48h-.24c-.8 0-1.56.3-2.12.84A2.8 2.8 0 0 0 .07 6.7v11.45c0 .76.31 1.48.88 2.02.56.54 1.32.84 2.12.84h22c.8 0 1.55-.3 2.12-.84a2.8 2.8 0 0 0 .88-2.02V6.68a2.8 2.8 0 0 0-.88-2.02 3.08 3.08 0 0 0-2.12-.84Zm-7.2 12.07a6.14 6.14 0 0 1-5.94.92 6 6 0 0 1-2.52-1.74 5.61 5.61 0 0 1-1.27-2.71c-.21.07-.45.06-.66 0a1 1 0 0 1-.51-.4.92.92 0 0 1 .14-1.18l1.25-1.2a1.02 1.02 0 0 1 1.41 0l1.25 1.2a.92.92 0 0 1 .22 1.04.97.97 0 0 1-.37.43 1.03 1.03 0 0 1-.68.15c.17.62.5 1.2.96 1.66a4.19 4.19 0 0 0 5.46.34 1.02 1.02 0 0 1 .73-.2 1.04 1.04 0 0 1 .68.34.94.94 0 0 1 .22.7.92.92 0 0 1-.37.65Zm3.15-3.76-1.25 1.2c-.19.17-.44.27-.7.27-.27 0-.52-.1-.71-.28l-1.25-1.2a.92.92 0 0 1-.2-1.09.97.97 0 0 1 .42-.41c.18-.1.4-.14.6-.11-.17-.63-.5-1.2-.96-1.67a4.18 4.18 0 0 0-5.47-.33 1.01 1.01 0 0 1-.74.24 1.04 1.04 0 0 1-.69-.35.94.94 0 0 1-.22-.71.92.92 0 0 1 .38-.65 6.14 6.14 0 0 1 5.94-.94 6 6 0 0 1 2.54 1.74 5.6 5.6 0 0 1 1.27 2.72c.21-.07.45-.07.66 0 .21.07.4.2.52.39a.92.92 0 0 1-.14 1.18Z"/></svg>