<svg xmlns="http://www.w3.org/2000/svg" fill="none" viewBox="0 0 29 21"><path fill="#fff" d="M25 3.8h-3.6a1 1 0 0 1-.6-.3l-1.6-2.4A2.8 2.8 0 0 0 16.9 0h-5.7A2.8 2.8 0 0 0 9 1L7.3 3.6c0 .2-.3.3-.5.3v-.5a1 1 0 0 0-.3-.6 1 1 0 0 0-.7-.3H4.3a1 1 0 0 0-.7.3 1 1 0 0 0-.3.6v.5h-.2a3 3 0 0 0-2.2.9 2.8 2.8 0 0 0-.8 2v11.4c0 .8.3 1.5.9 2a3 3 0 0 0 2 1h22a3 3 0 0 0 2.2-1 2.8 2.8 0 0 0 .9-2V6.7a2.8 2.8 0 0 0-1-2 3 3 0 0 0-2-.9Zm-7.1 12a6.1 6.1 0 0 1-6 1 6 6 0 0 1-2.5-1.7 5.6 5.6 0 0 1-1.3-2.7h-.6A1 1 0 0 1 7 12a1 1 0 0 1 .1-1.2l1.3-1.2a1 1 0 0 1 1.4 0l1.2 1.2a1 1 0 0 1 .2 1 1 1 0 0 1-.3.5 1 1 0 0 1-.7.1c.2.6.5 1.2 1 1.7a4.2 4.2 0 0 0 5.4.3 1 1 0 0 1 .7-.2 1 1 0 0 1 .7.3 1 1 0 0 1 .2.7 1 1 0 0 1-.3.7Zm3.1-3.7-1.2 1.2a1 1 0 0 1-.7.3 1 1 0 0 1-.7-.3L17 12.1a1 1 0 0 1-.2-1 1 1 0 0 1 .4-.5h.6c-.1-.7-.5-1.3-1-1.8a4.2 4.2 0 0 0-5.4-.3 1 1 0 0 1-.7.3 1 1 0 0 1-.7-.4 1 1 0 0 1-.2-.7 1 1 0 0 1 .3-.7 6.1 6.1 0 0 1 6-.9 6 6 0 0 1 2.5 1.7 5.6 5.6 0 0 1 1.3 2.8h.6c.3 0 .4.2.6.4a1 1 0 0 1-.1 1Z"/></svg>