<svg xmlns="http://www.w3.org/2000/svg" fill="none" viewBox="0 0 29 29"><path fill="#000" d="m22.84 3.58-17.5-.06a3.5 3.5 0 0 0-3.51 3.49l-.05 14a3.5 3.5 0 0 0 3.48 3.51l17.5.06a3.5 3.5 0 0 0 3.52-3.48l.05-14a3.5 3.5 0 0 0-3.49-3.52Zm-4.39 3.49a2.63 2.63 0 1 1-.02 5.25 2.63 2.63 0 0 1 .02-5.25ZM5.27 22.77a1.75 1.75 0 0 1-1.74-1.76l.01-3.7 5.2-4.59a2.63 2.63 0 0 1 3.6.12l3.54 3.56-6.43 6.39-4.18-.02Zm19.26-1.68a1.75 1.75 0 0 1-1.76 1.74l-10.85-.04 6.67-6.61a2.6 2.6 0 0 1 3.37 0l2.58 2.17-.01 2.74Z"/></svg>